<svg width="551" height="614" viewBox="0 0 551 614" fill="none" xmlns="http://www.w3.org/2000/svg">
<path fill-rule="evenodd" clip-rule="evenodd" d="M225.5 78.5C226.15 78.8039 226.817 79.1373 227.5 79.5C228.169 81.6309 228.835 83.6309 229.5 85.5C235.748 97.6627 243.248 108.996 252 119.5C254.073 121.165 256.24 122.665 258.5 124C261.113 128.45 264.78 131.617 269.5 133.5C269.035 129.938 267.868 126.605 266 123.5C265.833 120 265.667 116.5 265.5 113C265.852 105.455 266.519 97.9553 267.5 90.5C268.977 88.193 270.977 86.3597 273.5 85C278.775 83.6415 284.109 83.3081 289.5 84C297.813 84.8125 304.146 88.6458 308.5 95.5C309.826 99.6139 310.493 104.114 310.5 109C312.045 118.279 309.879 126.446 304 133.5C304.5 139.5 304 142.5 304.5 148.5C312.729 152.356 323.062 155.523 331.5 159C333.804 161.157 333.971 160.824 337 162C338.917 161.746 340.751 162.246 341.5 160.5C342.478 158.188 344.145 157.522 346.5 156.5C345.351 159.041 345.351 161.541 346.5 164C345.12 165.324 344.786 166.657 345.5 168C341.824 168.247 341.158 167.247 343.5 165C343.167 164.5 342.833 164 342.5 163.5C339.761 164.837 337.094 166.17 334.5 167.5C324.797 160.979 314.463 155.479 303.5 151C298.675 143.879 298.175 136.379 302 128.5C304.44 127.726 305.773 126.06 306 123.5C312.764 98.2884 303.264 86.1217 277.5 87C272.213 88.0633 270.546 91.0633 272.5 96C272.07 97.4341 271.236 98.6008 270 99.5C269.333 107.5 269.333 115.5 270 123.5C273.162 128.777 274.162 134.443 273 140.5C264.378 134.213 256.045 127.547 248 120.5C240.549 111.044 233.882 101.044 228 90.5C226.842 86.573 226.009 82.573 225.5 78.5Z" fill="white"/>
<path fill-rule="evenodd" clip-rule="evenodd" d="M399.5 98.5C393.339 97.4202 387.339 95.7536 381.5 93.5C380.5 93.5 379.5 93.5 378.5 93.5C376.786 92.2616 374.786 91.595 372.5 91.5C372.666 100.839 372.5 110.173 372 119.5C371.817 122.365 371.317 125.031 370.5 127.5C370.905 120.675 371.239 113.841 371.5 107C371.671 101.183 371.004 95.5165 369.5 90C372.338 89.6305 375.171 89.7971 378 90.5C385.416 92.799 392.582 95.4657 399.5 98.5Z" fill="white"/>
<path fill-rule="evenodd" clip-rule="evenodd" d="M362 61.5001C362 61.5001 367.061 73.4916 368.5 78.5C412.964 94.2599 458.631 104.927 505.5 110.5C507.471 152.896 506.638 195.229 503 237.5C496.772 309.786 475.438 377.119 439 439.5C439.605 430.798 440.438 422.131 441.5 413.5C444.738 408.026 447.738 402.36 450.5 396.5C461.68 371.629 470.68 345.962 477.5 319.5C478.768 317.095 479.435 314.428 479.5 311.5C480.749 308.913 481.749 306.246 482.5 303.5C485.304 300.562 487.804 296.562 490 291.5C490.498 289.473 490.331 287.473 489.5 285.5C491.42 280.912 493.254 276.245 495 271.5C495.459 263.601 494.959 263.601 493.5 271.5C492.5 271.5 491.5 271.5 490.5 271.5C490.693 263.462 491.36 255.462 492.5 247.5C493.029 244.743 494.029 242.243 495.5 240C494.414 235.556 494.414 231.056 495.5 226.5C495.389 225.883 495.056 225.383 494.5 225C462.689 224.463 431.022 224.13 399.5 224C400.833 223.667 402.167 223.333 403.5 223C403.167 222.667 402.833 222.333 402.5 222C390.869 220.732 379.203 220.232 367.5 220.5C367.5 221.833 367.5 223.167 367.5 224.5C365.167 224.5 362.833 224.5 360.5 224.5C360.88 226.698 360.213 228.365 358.5 229.5C356.384 222.604 353.718 215.937 350.5 209.5C351.434 208.432 351.768 207.099 351.5 205.5C361.5 205.5 371.5 205.5 381.5 205.5C381.5 205.833 381.5 206.167 381.5 206.5C372.143 206.168 362.81 206.502 353.5 207.5C355.108 210.382 356.441 213.382 357.5 216.5C403.332 217.831 448.998 217.831 494.5 216.5C494.435 209.476 494.768 202.476 495.5 195.5C495.5 194.833 495.5 194.167 495.5 193.5C495.5 190.167 495.5 186.833 495.5 183.5C493.735 182.539 491.735 182.205 489.5 182.5C489.5 182.167 489.5 181.833 489.5 181.5C491.5 181.5 493.5 181.5 495.5 181.5C495.5 164.833 495.5 148.167 495.5 131.5C490.167 131.5 484.833 131.5 479.5 131.5C485.077 131.144 490.41 130.144 495.5 128.5C495.5 128.167 495.5 127.833 495.5 127.5C495.5 124.833 495.5 122.167 495.5 119.5C485.267 118.407 475.267 116.741 465.5 114.5C462.497 112.738 459.163 111.572 455.5 111C454.643 110.311 453.977 109.478 453.5 108.5C442.715 107.758 432.048 106.424 421.5 104.5C413.89 103.119 406.557 101.119 399.5 98.5C392.582 95.4657 385.416 92.799 378 90.5C375.171 89.7971 372.338 89.6305 369.5 90C371.004 95.5165 371.671 101.183 371.5 107C371.239 113.841 370.905 120.675 370.5 127.5C369.656 131.874 368.656 136.207 367.5 140.5C363.87 148.424 359.703 156.091 355 163.5C354.516 165.193 355.016 166.527 356.5 167.5C355.07 167.579 353.736 167.246 352.5 166.5C351.269 167.651 351.269 168.817 352.5 170C348.695 169.974 346.695 171.808 346.5 175.5C345.5 175.5 344.5 175.5 343.5 175.5C343.963 178.482 344.296 181.482 344.5 184.5C341.434 178.704 338.1 173.038 334.5 167.5C337.094 166.17 339.761 164.837 342.5 163.5C342.833 164 343.167 164.5 343.5 165C341.158 167.247 341.824 168.247 345.5 168C344.786 166.657 345.12 165.324 346.5 164C345.351 161.541 345.351 159.041 346.5 156.5C347.41 153.008 349.076 150.008 351.5 147.5C353.5 140.5 353.619 139.514 354.5 137C355.658 132.382 356 130.5 358.5 127.5C358.833 127.5 358.167 124 358.5 124C359.469 121.837 358.802 119.504 359.5 117C360.167 107.333 360.167 101.167 359.5 91.4998C358.417 87.0097 359.084 86.5097 356.5 82.9998C356 81.4998 352.5 67.9998 348.5 61.4998C351.5 57.9998 355 64.0001 355 64.0001L362 61.5001Z" fill="white"/>
<path fill-rule="evenodd" clip-rule="evenodd" d="M215.5 29.5C214.887 37.5055 215.887 45.5055 218.5 53.5C220.847 61.5183 223.18 69.5183 225.5 77.5C225.5 77.8333 225.5 78.1667 225.5 78.5C226.009 82.573 226.842 86.573 228 90.5C233.882 101.044 240.549 111.044 248 120.5C256.045 127.547 264.378 134.213 273 140.5C274.162 134.443 273.162 128.777 270 123.5C269.333 115.5 269.333 107.5 270 99.5C271.236 98.6008 272.07 97.4341 272.5 96C270.546 91.0633 272.213 88.0633 277.5 87C303.264 86.1217 312.764 98.2884 306 123.5C305.773 126.06 304.44 127.726 302 128.5C298.175 136.379 298.675 143.879 303.5 151C314.463 155.479 324.797 160.979 334.5 167.5C338.1 173.038 341.434 178.704 344.5 184.5C345.858 187.874 347.191 191.207 348.5 194.5C347.5 194.5 346.5 194.5 345.5 194.5C346.965 199.562 348.632 204.562 350.5 209.5C353.718 215.937 356.384 222.604 358.5 229.5C359.715 240.547 357.382 250.88 351.5 260.5C351.624 261.107 351.957 261.44 352.5 261.5C356.76 263.3 360.76 265.633 364.5 268.5C365.605 269.6 366.938 270.267 368.5 270.5C373.196 274.521 378.196 278.188 383.5 281.5C388.807 286.472 394.14 291.472 399.5 296.5C405.601 302.931 410.934 309.931 415.5 317.5C415.414 318.496 415.748 319.329 416.5 320C415.234 320.309 414.067 320.809 413 321.5C412.751 320.376 412.251 319.376 411.5 318.5C410.304 318.846 410.304 319.346 411.5 320C410.216 320.684 409.049 320.517 408 319.5C407.283 320.044 406.783 320.711 406.5 321.5C397.566 309.564 387.232 298.898 375.5 289.5C363.192 277.682 348.859 269.516 332.5 265C338.847 274.527 344.014 284.694 348 295.5C363.706 304.938 377.539 316.604 389.5 330.5C390.551 331.222 391.218 332.222 391.5 333.5C389.144 350.412 384.811 366.912 378.5 383C378.989 384.138 379.322 385.305 379.5 386.5C378.833 386.5 378.167 386.5 377.5 386.5C376.466 385.313 375.133 384.48 373.5 384C357.038 380.634 340.705 376.801 324.5 372.5C322.183 374.316 320.016 376.316 318 378.5C307.742 391.429 296.742 403.762 285 415.5C284.15 417.01 283.317 418.51 282.5 420C288.338 438.399 293.338 456.899 297.5 475.5C298.116 476.798 298.116 477.798 297.5 478.5C295.345 478.372 293.345 478.872 291.5 480C277.31 489.928 262.643 499.095 247.5 507.5C247.028 509.531 246.028 511.198 244.5 512.5C244.731 509.215 243.397 506.715 240.5 505C224.631 494.135 210.298 481.468 197.5 467C191.509 466.501 185.509 466.334 179.5 466.5C172.492 466.666 165.492 466.5 158.5 466C157.288 464.893 157.621 464.393 159.5 464.5C171.854 464.195 184.188 463.528 196.5 462.5C200.914 444.339 208.08 427.339 218 411.5C218.579 410.072 218.412 408.738 217.5 407.5C217.833 406.5 218.5 405.833 219.5 405.5C220.028 406.721 220.695 407.887 221.5 409C241.306 410.608 260.972 412.941 280.5 416C293.918 402.306 306.751 388.139 319 373.5C320.373 371.305 320.706 368.971 320 366.5C314.75 350.19 308.584 334.357 301.5 319C298.846 318.059 296.179 317.226 293.5 316.5C292.375 315.348 292.375 314.348 293.5 313.5C297.076 314.813 300.742 315.313 304.5 315C316.841 307.246 329.675 300.413 343 294.5C342.843 290.682 341.843 287.015 340 283.5C336.333 276.833 332.667 270.167 329 263.5C305.853 255.434 282.02 252.601 257.5 255C251.111 255.175 245.111 256.675 239.5 259.5C237.602 258.904 235.935 258.904 234.5 259.5C209.238 266.819 187.238 279.486 168.5 297.5C167.833 298.833 167.167 300.167 166.5 301.5C164.589 302.075 162.922 303.075 161.5 304.5C160.883 304.389 160.383 304.056 160 303.5C158.867 305.211 157.367 305.711 155.5 305C157.932 303.913 157.598 303.413 154.5 303.5C154.5 302.5 154.5 301.5 154.5 300.5C155.822 300.33 156.989 300.663 158 301.5C159.252 298.986 159.752 296.32 159.5 293.5C166.201 286.797 173.201 280.464 180.5 274.5C182.537 273.154 184.537 271.82 186.5 270.5C187.833 269.833 189.167 269.167 190.5 268.5C198.609 263.112 207.276 258.779 216.5 255.5C224.412 252.526 232.412 250.192 240.5 248.5C242.037 239.039 243.37 229.539 244.5 220C244.134 212.986 243.467 206.153 242.5 199.5C242.5 195.5 242.5 191.5 242.5 187.5C244.289 170.718 240.122 155.718 230 142.5C224.36 125.556 217.36 109.223 209 93.5C207.515 88.8946 206.349 84.228 205.5 79.5C204.779 71.3259 203.779 63.3259 202.5 55.5C202.666 46.1607 202.5 36.8274 202 27.5C200.075 24.4929 199.241 21.1596 199.5 17.5C199.559 15.1088 199.893 12.7754 200.5 10.5C204.268 7.5957 208.268 5.92904 212.5 5.5C214.167 6.83333 215.833 6.83333 217.5 5.5C219.187 5.7605 220.687 6.42717 222 7.5C222.642 10.2772 223.476 12.9439 224.5 15.5C224.158 17.8668 223.658 20.2001 223 22.5C220.656 25.0105 218.156 27.3438 215.5 29.5Z" fill="#030504"/>
<path fill-rule="evenodd" clip-rule="evenodd" d="M287.5 27.5C278.494 27.3336 269.494 27.5002 260.5 28C256.779 29.0298 253.112 30.1965 249.5 31.5C249.5 30.5 249.5 29.5 249.5 28.5C257.323 27.0724 265.323 26.4057 273.5 26.5C278.346 26.5008 283.012 26.8341 287.5 27.5Z" fill="#FF9D00"/>
<path fill-rule="evenodd" clip-rule="evenodd" d="M287.5 27.5C294.225 28.5143 300.892 29.8476 307.5 31.5C309.769 32.9758 312.102 34.4758 314.5 36C317.412 36.2752 320.079 37.1086 322.5 38.5C326.9 42.3902 331.734 45.7236 337 48.5C343.012 55.8811 351 62 353.5 71.5C354.506 74.2097 355.506 76.8763 356.5 79.5C358.481 84.796 359.632 89.1181 360.5 95.5C361.87 105.568 360.644 111.403 359.5 121.5C359.323 123.064 359 125.5 359 125.5L358.5 127.5L351.5 147.5C351.5 147.5 349.004 153.354 346.5 156.5C344.78 158.661 343.996 160.318 341.5 161.5C340.045 162.189 339.108 162.417 337.5 162.5C334.168 162.671 332.608 160.713 329.5 159.5C319.563 155.622 304.5 148.5 304.5 148.5L304 133.5C304 133.5 312.045 118.279 310.5 109C310.493 104.114 309.826 99.6139 308.5 95.5C308.435 93.3043 307.768 91.3043 306.5 89.5C302.689 87.9753 300.189 85.3086 299 81.5C298.439 82.0219 297.772 82.3552 297 82.5C296.333 81.8333 295.667 81.1667 295 80.5C287.996 82.2181 280.829 83.0514 273.5 83C271.667 84.1667 269.833 85.3333 268 86.5C267.51 87.7932 267.343 89.1266 267.5 90.5C266.519 97.9553 265.852 105.455 265.5 113C265.667 116.5 265.833 120 266 123.5C267.868 126.605 269.035 129.938 269.5 133.5C264.78 131.617 261.113 128.45 258.5 124C256.24 122.665 254.073 121.165 252 119.5C243.248 108.996 235.748 97.6627 229.5 85.5C229.466 78.0307 228.466 70.6973 226.5 63.5C226.087 58.1007 226.087 52.7673 226.5 47.5C229.793 43.2195 234.126 40.5529 239.5 39.5C242.497 36.1833 245.83 33.5166 249.5 31.5C253.112 30.1965 256.779 29.0298 260.5 28C269.494 27.5002 278.494 27.3336 287.5 27.5Z" fill="#FF9D00"/>
<path fill-rule="evenodd" clip-rule="evenodd" d="M247.5 31.5C248.167 31.5 248.833 31.5 249.5 31.5C245.83 33.5166 242.497 36.1833 239.5 39.5C234.126 40.5529 229.793 43.2195 226.5 47.5C226.087 52.7673 226.087 58.1007 226.5 63.5C226.167 63.5 225.833 63.5 225.5 63.5C225.657 62.1266 225.49 60.7932 225 59.5C223.918 57.3819 222.751 55.3819 221.5 53.5C221.201 51.396 221.534 49.396 222.5 47.5C224.403 46.0527 226.07 44.386 227.5 42.5C234.238 38.8012 240.904 35.1345 247.5 31.5Z" fill="#FF9D00"/>
<path fill-rule="evenodd" clip-rule="evenodd" d="M296 28C330 34.4221 368 68.4998 353.5 71.4998C357 60.5 280 1.50074 222.5 47.4993C221.534 49.3953 221.201 51.3953 221.5 53.4993C221.809 57.4225 223.142 60.7558 225.5 63.4993C226.597 68.3201 226.597 72.9867 225.5 77.4993C223.18 69.5176 220.847 61.5176 218.5 53.4993C218.208 52.5011 216.617 48.0553 217 47.4993C217.333 45.166 219 43.4998 219 43.4998C219 43.4998 221 41.9998 223 40.4998C225.88 38.3395 227.48 37.4589 230.5 35.4993C233.578 33.5027 239 31.4993 239 31.4993C239 31.4993 260.608 21.3152 296 28Z" fill="white"/>
<path fill-rule="evenodd" clip-rule="evenodd" d="M221.5 53.5C222.751 55.3819 223.918 57.3819 225 59.5C225.49 60.7932 225.657 62.1266 225.5 63.5C223.142 60.7565 221.809 57.4232 221.5 53.5Z" fill="#FF9D00"/>
<path fill-rule="evenodd" clip-rule="evenodd" d="M278.5 605.5C219.465 578.313 169.965 538.979 130 487.5C70.6801 401.624 39.3467 306.291 36 201.5C35.3333 167.5 35.3333 133.5 36 99.5C88.9445 92.5094 140.611 80.1761 191 62.5C191.5 62.8333 192 63.6667 192.5 64C190.029 68.4157 188.362 72.5823 187.5 77.5C142.654 93.2111 96.6543 104.211 49.5 110.5C47.9651 143.531 48.2984 176.531 50.5 209.5C53.7991 287.368 73.6324 360.701 110 429.5C111.333 431.5 112.667 433.5 114 435.5C114.543 427.063 114.043 418.73 112.5 410.5C112.316 366.894 126.649 328.894 155.5 296.5C156.833 295.5 158.167 294.5 159.5 293.5C159.752 296.32 159.252 298.986 158 301.5C156.989 300.663 155.822 300.33 154.5 300.5C154.5 301.5 154.5 302.5 154.5 303.5C157.598 303.413 157.932 303.913 155.5 305C157.367 305.711 158.867 305.211 160 303.5C160.383 304.056 160.883 304.389 161.5 304.5C137.804 332.078 124.97 364.078 123 400.5C125.568 402.636 127.902 402.636 130 400.5C133.977 381.549 141.977 364.549 154 349.5C155.427 333.552 160.261 318.718 168.5 305C168.022 303.697 167.355 302.531 166.5 301.5C167.167 300.167 167.833 298.833 168.5 297.5C168.244 299.912 169.244 301.579 171.5 302.5C181.841 292.993 193.507 285.493 206.5 280C209.753 278.964 213.086 278.297 216.5 278C223.068 271.609 229.068 265.443 234.5 259.5C235.935 258.904 237.602 258.904 239.5 259.5C233.895 264.603 228.395 269.936 223 275.5C222.362 276.609 221.862 277.775 221.5 279C227.119 287.733 232.619 296.566 238 305.5C256.968 305.598 275.468 308.265 293.5 313.5C292.375 314.348 292.375 315.348 293.5 316.5C274.944 310.716 255.944 308.549 236.5 310C223.269 322.562 210.769 335.728 199 349.5C203.818 368.822 210.652 387.489 219.5 405.5C218.5 405.833 217.833 406.5 217.5 407.5C208.354 390.072 201.354 371.739 196.5 352.5C182.484 352.167 168.484 352.501 154.5 353.5C141.703 370.066 134.536 388.733 133 409.5C136.321 428.466 142.987 446.133 153 462.5C155.277 463.117 157.444 463.784 159.5 464.5C157.621 464.393 157.288 464.893 158.5 466C165.492 466.5 172.492 466.666 179.5 466.5C170.975 467.759 162.308 467.759 153.5 466.5C153.214 472.259 153.548 477.925 154.5 483.5C154.376 489.59 155.042 495.59 156.5 501.5C178.725 524.452 205.392 539.952 236.5 548C242.12 550.837 246.953 550.004 251 545.5C251.154 539.815 249.987 534.481 247.5 529.5C246.628 523.808 245.628 518.141 244.5 512.5C246.028 511.198 247.028 509.531 247.5 507.5C247.543 516.048 248.877 524.382 251.5 532.5C252.541 537.003 254.041 541.336 256 545.5C259.5 548.333 263 551.167 266.5 554C295.879 555.208 323.879 549.542 350.5 537C354.445 532.897 357.779 528.397 360.5 523.5C357.941 512.913 354.941 502.58 351.5 492.5C333.026 489.382 315.026 484.715 297.5 478.5C298.116 477.798 298.116 476.798 297.5 475.5C315.659 482.207 334.326 486.707 353.5 489C368.348 475.162 380.514 459.328 390 441.5C390.461 436.816 390.295 432.149 389.5 427.5C390.9 428.1 391.9 429.1 392.5 430.5C393.299 433.43 393.632 436.43 393.5 439.5C395.806 439.993 398.139 440.326 400.5 440.5C408.673 443.294 417.007 445.628 425.5 447.5C437.458 406.458 432.958 367.458 412 330.5C411.586 330.043 411.086 329.709 410.5 329.5C405.389 330.588 400.389 331.588 395.5 332.5C394.167 332.833 392.833 333.167 391.5 333.5C391.218 332.222 390.551 331.222 389.5 330.5C392.152 330.59 394.485 329.924 396.5 328.5C400.188 328.219 403.855 327.719 407.5 327C407.957 326.586 408.291 326.086 408.5 325.5C407.37 324.378 406.703 323.044 406.5 321.5C406.783 320.711 407.283 320.044 408 319.5C409.049 320.517 410.216 320.684 411.5 320C410.304 319.346 410.304 318.846 411.5 318.5C412.251 319.376 412.751 320.376 413 321.5C414.067 320.809 415.234 320.309 416.5 320C415.748 319.329 415.414 318.496 415.5 317.5C435.673 346.178 444.34 378.178 441.5 413.5C440.438 422.131 439.605 430.798 439 439.5C475.438 377.119 496.772 309.786 503 237.5C506.638 195.229 507.471 152.896 505.5 110.5C458.631 104.927 412.964 94.2599 368.5 78.5C367.061 73.4916 365.061 68.825 362.5 64.5C362 63 361.5 60.9999 362.5 61.5C413.337 80.2523 465.67 92.9189 519.5 99.5C520.973 135.506 520.807 171.506 519 207.5C516.01 276.448 500.677 342.448 473 405.5C432.628 496.038 367.794 562.705 278.5 605.5Z" fill="#030504"/>
<path fill-rule="evenodd" clip-rule="evenodd" d="M225.5 63.5C225.833 63.5 226.167 63.5 226.5 63.5C228.466 70.6973 229.466 78.0307 229.5 85.5C228.835 83.6309 228.169 81.6309 227.5 79.5C226.817 79.1373 226.15 78.8039 225.5 78.5C225.5 78.1667 225.5 77.8333 225.5 77.5C226.597 72.9874 226.597 68.3208 225.5 63.5Z" fill="white"/>
<path fill-rule="evenodd" clip-rule="evenodd" d="M308.5 95.5C304.146 88.6458 297.813 84.8125 289.5 84C284.109 83.3081 278.775 83.6415 273.5 85C270.977 86.3597 268.977 88.193 267.5 90.5C267.343 89.1266 267.51 87.7932 268 86.5C269.833 85.3333 271.667 84.1667 273.5 83C280.829 83.0514 287.996 82.2181 295 80.5C295.667 81.1667 296.333 81.8333 297 82.5C297.772 82.3552 298.439 82.0219 299 81.5C300.189 85.3086 302.689 87.9753 306.5 89.5C307.768 91.3043 308.435 93.3043 308.5 95.5Z" fill="#FF9D00"/>
<path fill-rule="evenodd" clip-rule="evenodd" d="M197.5 79.5C197.246 85.0947 196.246 90.4281 194.5 95.5C194.58 89.8754 195.58 84.542 197.5 79.5Z" fill="white"/>
<path fill-rule="evenodd" clip-rule="evenodd" d="M192.5 95.5C192.728 103.088 192.395 110.755 191.5 118.5C191.285 122.018 192.119 122.351 194 119.5C194.495 121.473 194.662 123.473 194.5 125.5C193.282 129.229 191.782 132.895 190 136.5C188.19 134.516 188.024 132.349 189.5 130C189.389 128.278 188.889 128.112 188 129.5C187.473 126.419 186.64 123.419 185.5 120.5C186.012 112.157 186.346 103.824 186.5 95.5C187.877 92.1741 189.71 89.1741 192 86.5C192.498 89.4816 192.665 92.4816 192.5 95.5Z" fill="white"/>
<path fill-rule="evenodd" clip-rule="evenodd" d="M205.5 79.5C206.349 84.228 207.515 88.8946 209 93.5C217.36 109.223 224.36 125.556 230 142.5C240.122 155.718 244.289 170.718 242.5 187.5C241.778 187.918 241.278 188.584 241 189.5C239.354 187.431 237.187 186.098 234.5 185.5C233.441 183.466 232.441 181.466 231.5 179.5C232.627 180.122 233.627 180.955 234.5 182C236.387 182.78 238.054 182.613 239.5 181.5C239.069 174.787 238.236 168.12 237 161.5C233.426 153.347 229.093 145.68 224 138.5C222.326 130.477 219.659 122.81 216 115.5C215.26 113.681 214.093 112.348 212.5 111.5C210.94 104.327 208.106 97.66 204 91.5C203.637 86.0475 202.637 80.7141 201 75.5C200.066 76.8584 199.232 78.1917 198.5 79.5C198.338 77.4727 198.505 75.4727 199 73.5C199.388 72.572 200.055 71.9054 201 71.5C202.973 73.9396 204.473 76.6063 205.5 79.5Z" fill="white"/>
<path fill-rule="evenodd" clip-rule="evenodd" d="M192.5 95.5C193.167 95.5 193.833 95.5 194.5 95.5C192.447 119.314 198.447 140.647 212.5 159.5C213.075 161.411 214.075 163.078 215.5 164.5C212.081 163.958 210.414 161.958 210.5 158.5C209.178 158.67 208.011 158.337 207 157.5C205.037 152.24 202.537 147.24 199.5 142.5C198.749 143.376 198.249 144.376 198 145.5C197.333 144.167 196.667 142.833 196 141.5C195.337 136.105 194.837 130.772 194.5 125.5C194.662 123.473 194.495 121.473 194 119.5C192.119 122.351 191.285 122.018 191.5 118.5C192.395 110.755 192.728 103.088 192.5 95.5Z" fill="white"/>
<path fill-rule="evenodd" clip-rule="evenodd" d="M203 59C204.279 66.8259 204.779 71.3259 205.5 79.5C204.473 76.6063 202.973 73.9396 201 71.5C200.055 71.9054 199.388 72.572 199 73.5C198.505 75.4727 199.338 74.9727 199.5 77C199.167 77 198.5 78.5 197.5 79.5C196 83.5 194.58 89.8754 194.5 95.5C193.833 95.5 193.167 95.5 192.5 95.5C192.665 92.4816 192.498 89.4816 192 86.5C189.71 89.1741 187.877 92.1741 186.5 95.5C186.346 103.824 186.012 112.157 185.5 120.5C186.64 123.419 187.473 126.419 188 129.5C188.889 128.112 189.389 128.278 189.5 130C188.024 132.349 188.19 134.516 190 136.5C191.782 132.895 193.282 129.229 194.5 125.5C194.837 130.772 195.337 136.105 196 141.5C196.667 142.833 197.333 144.167 198 145.5C198.249 144.376 198.749 143.376 199.5 142.5C202.537 147.24 205.037 152.24 207 157.5C208.011 158.337 209.178 158.67 210.5 158.5C214 161.5 213 157 217 165C219.667 167.333 220.833 169.167 223.5 171.5C224.5 172.5 225 172.5 225.5 173.5C229 177 229 178 231.5 179.5C232.441 181.466 233.441 183.466 234.5 185.5C237.187 186.098 239.354 187.431 241 189.5C241.278 188.584 241.778 187.918 242.5 187.5C242.5 191.5 242.5 195.5 242.5 199.5C242.666 203.514 242.499 207.514 242 211.5C241.5 210.5 241 209.5 240.5 208.5C240.403 206.251 240.57 203.918 241 201.5C239.575 202.079 237.908 202.079 236 201.5C235.504 203.035 235.67 204.535 236.5 206C236.095 206.945 235.428 207.612 234.5 208C235.743 209.154 236.743 210.488 237.5 212C235.718 212.814 234.218 213.981 233 215.5C232.667 214.833 232.333 214.167 232 213.5C231.333 218.833 230.667 218.833 230 213.5C229.097 214.701 227.931 215.535 226.5 216C229.176 218.494 228.842 220.66 225.5 222.5C224.614 221.675 224.281 220.675 224.5 219.5C221.68 219.752 219.014 219.252 216.5 218C218.708 217.809 220.708 217.309 222.5 216.5C205.187 200.522 187.854 184.522 170.5 168.5C164.454 173.881 158.121 178.881 151.5 183.5C144.5 177 137.5 170.5 130.5 164C128.788 162.249 126.788 161.582 124.5 162C109.354 174.312 94.3539 186.812 79.5 199.5C73.851 195.517 68.851 190.851 64.5 185.5C65.4734 185.013 66.4734 184.513 67.5 184C65.4127 183.208 63.5793 182.041 62 180.5C60.9887 181.337 59.8221 181.67 58.5 181.5C58.7852 183.288 58.4519 184.955 57.5 186.5C56.2011 185.91 55.3678 184.91 55 183.5C54.3333 186.167 53.6667 186.167 53 183.5C52.3333 184.833 51.6667 184.833 51 183.5C51.5565 192.324 51.3898 200.99 50.5 209.5C48.2984 176.531 47.9651 143.531 49.5 110.5C96.6543 104.211 142.654 93.2111 187.5 77.5C188.688 76.3157 189.5 62 191.5 62.5L192.5 62L195.5 61L197.5 60.5L199.5 60L201.5 59.5C201.5 59.5 202 59.5 203 59Z" fill="white"/>
<path fill-rule="evenodd" clip-rule="evenodd" d="M179.5 91.5C180.568 90.5655 181.901 90.2322 183.5 90.5C183.5 98.1667 183.5 105.833 183.5 113.5C182.508 106.352 182.175 99.0191 182.5 91.5C181.5 91.5 180.5 91.5 179.5 91.5Z" fill="white"/>
<path fill-rule="evenodd" clip-rule="evenodd" d="M183.5 90.5C181.901 90.2322 180.568 90.5655 179.5 91.5C157.087 99.1005 134.421 105.434 111.5 110.5C108.167 110.833 104.833 111.167 101.5 111.5C102.749 109.864 104.416 108.697 106.5 108C109.218 107.347 111.884 106.513 114.5 105.5C116.5 105.833 118.5 106.167 120.5 106.5C123.732 105.051 127.065 103.884 130.5 103C131.701 102.097 132.535 100.931 133 99.5C134.185 101.844 136.018 102.677 138.5 102C137.833 101.333 137.167 100.667 136.5 100C139.968 98.3797 143.634 97.213 147.5 96.5C149.239 97.3998 151.072 98.0665 153 98.5C156.108 97.669 155.941 96.8357 152.5 96C154.568 95.3131 156.568 95.4798 158.5 96.5C159.452 94.9547 159.785 93.288 159.5 91.5C163.75 90.9651 167.917 89.9651 172 88.5C175.985 89.0721 179.818 89.7388 183.5 90.5Z" fill="white"/>
<path fill-rule="evenodd" clip-rule="evenodd" d="M479.5 131.5C484.833 131.5 490.167 131.5 495.5 131.5C495.5 148.167 495.5 164.833 495.5 181.5C493.5 181.5 491.5 181.5 489.5 181.5C479.75 181.806 470.084 181.473 460.5 180.5C460.281 179.325 460.614 178.325 461.5 177.5C463.001 178.752 464.668 179.752 466.5 180.5C467.773 179.743 467.773 179.077 466.5 178.5C468.635 176.631 471.302 175.964 474.5 176.5C474.784 174.123 474.784 171.956 474.5 170C476.107 168.951 476.773 167.451 476.5 165.5C476.664 162.813 476.497 160.146 476 157.5C471.781 152.14 466.281 148.973 459.5 148C461.161 144.85 460.161 143.35 456.5 143.5C456.785 145.288 456.452 146.955 455.5 148.5C443.533 150.585 439.366 157.252 443 168.5C444.848 171.041 447.348 172.041 450.5 171.5C450.063 173.074 449.063 174.241 447.5 175C450.656 175.603 453.656 175.103 456.5 173.5C456.833 173.833 457.167 174.167 457.5 174.5C454.709 176.082 453.542 178.415 454 181.5C455.34 180.132 456.674 178.799 458 177.5C458.5 177.833 459 178.167 459.5 178.5C458.347 179.687 458.347 180.687 459.5 181.5C459.5 181.833 459.5 182.167 459.5 182.5C443.717 185.761 428.384 190.428 413.5 196.5C414.154 193.198 414.154 190.031 413.5 187C413.748 185.284 414.415 183.784 415.5 182.5C414.95 180.343 414.283 178.343 413.5 176.5C405.5 176.167 405.5 175.833 413.5 175.5C413.5 174.5 413.5 173.5 413.5 172.5C409.5 172.167 409.5 171.833 413.5 171.5C413.649 170.448 413.483 169.448 413 168.5C410.053 168.909 407.386 169.909 405 171.5C404.25 170.874 403.416 170.374 402.5 170C404.782 168.916 405.116 167.416 403.5 165.5C403.5 164.833 403.833 164.5 404.5 164.5C405.404 165.209 405.737 166.209 405.5 167.5C413.143 167.928 416.476 164.261 415.5 156.5C419.562 152.291 424.228 148.791 429.5 146C438.74 141.861 448.073 138.028 457.5 134.5C464.745 132.879 472.078 131.879 479.5 131.5Z" fill="white"/>
<path fill-rule="evenodd" clip-rule="evenodd" d="M222.5 216.5C168.5 216.5 114.5 216.5 60.5 216.5C59.8596 205.169 59.6929 193.835 60 182.5C61.129 184.141 62.629 185.141 64.5 185.5C68.851 190.851 73.851 195.517 79.5 199.5C94.3539 186.812 109.354 174.312 124.5 162C126.788 161.582 128.788 162.249 130.5 164C137.5 170.5 144.5 177 151.5 183.5C158.121 178.881 164.454 173.881 170.5 168.5C187.854 184.522 205.187 200.522 222.5 216.5Z" fill="#030504"/>
<path fill-rule="evenodd" clip-rule="evenodd" d="M356.5 167.5C360.179 167.724 363.846 168.058 367.5 168.5C370.273 169.657 373.273 170.324 376.5 170.5C380.634 171.485 384.968 171.818 389.5 171.5C389.671 174.797 389.005 175.131 387.5 172.5C386.28 173.711 385.113 173.711 384 172.5C383.308 173.025 382.808 173.692 382.5 174.5C384.423 175.308 386.423 175.808 388.5 176C386.423 176.192 384.423 176.692 382.5 177.5C382.977 178.478 383.643 179.311 384.5 180C383.577 182.041 383.244 184.208 383.5 186.5C383.286 188.144 383.62 189.644 384.5 191C383.572 191.388 382.905 192.055 382.5 193C383.384 194.098 384.384 194.598 385.5 194.5C382.942 196.12 382.942 197.62 385.5 199C384.027 199.71 383.36 200.876 383.5 202.5C388.932 202.637 394.265 201.971 399.5 200.5C400.416 200.543 401.083 200.876 401.5 201.5C395.018 203.692 388.351 205.025 381.5 205.5C371.5 205.5 361.5 205.5 351.5 205.5C351.768 207.099 351.434 208.432 350.5 209.5C348.632 204.562 346.965 199.562 345.5 194.5C346.5 194.5 347.5 194.5 348.5 194.5C347.191 191.207 345.858 187.874 344.5 184.5C344.296 181.482 343.963 178.482 343.5 175.5C344.5 175.5 345.5 175.5 346.5 175.5C346.695 171.808 348.695 169.974 352.5 170C351.269 168.817 351.269 167.651 352.5 166.5C353.736 167.246 355.07 167.579 356.5 167.5Z" fill="white"/>
<path fill-rule="evenodd" clip-rule="evenodd" d="M403.5 165.5C405.116 167.416 404.782 168.916 402.5 170C403.416 170.374 404.25 170.874 405 171.5C407.386 169.909 410.053 168.909 413 168.5C413.483 169.448 413.649 170.448 413.5 171.5C409.5 171.833 409.5 172.167 413.5 172.5C413.5 173.5 413.5 174.5 413.5 175.5C405.5 175.833 405.5 176.167 413.5 176.5C413.5 177.5 413.5 178.5 413.5 179.5C411.5 179.5 409.5 179.5 407.5 179.5C407.762 180.978 407.429 182.311 406.5 183.5C405.197 182.282 404.197 182.615 403.5 184.5C403.083 181.93 402.917 179.263 403 176.5C402.667 176.167 402.333 175.833 402 175.5C401.1 176.77 399.934 177.77 398.5 178.5C399.616 178.402 400.616 178.902 401.5 180C401.095 180.945 400.428 181.612 399.5 182C402 182.833 402.167 184 400 185.5C399.138 183.913 398.471 182.246 398 180.5C397.749 182.433 397.249 184.266 396.5 186C397.693 190.574 396.359 191.407 392.5 188.5C392.709 187.914 393.043 187.414 393.5 187C390.776 185.665 388.11 185.498 385.5 186.5C385.66 184.801 385.494 183.134 385 181.5C384.802 183.382 384.302 185.048 383.5 186.5C383.244 184.208 383.577 182.041 384.5 180C383.643 179.311 382.977 178.478 382.5 177.5C384.423 176.692 386.423 176.192 388.5 176C386.423 175.808 384.423 175.308 382.5 174.5C382.808 173.692 383.308 173.025 384 172.5C385.113 173.711 386.28 173.711 387.5 172.5C389.005 175.131 389.671 174.797 389.5 171.5C384.968 171.818 380.634 171.485 376.5 170.5C383.547 170.663 390.547 170.163 397.5 169C399.063 167.053 401.063 165.886 403.5 165.5Z" fill="white"/>
<path fill-rule="evenodd" clip-rule="evenodd" d="M459.5 182.5C469.5 182.5 479.5 182.5 489.5 182.5C491.735 182.205 493.735 182.539 495.5 183.5C483.405 183.589 471.405 183.589 459.5 183.5C457.444 185.019 455.11 185.853 452.5 186C453.167 187.333 454.167 188.333 455.5 189C455.043 189.414 454.709 189.914 454.5 190.5C456.078 191.298 457.744 191.798 459.5 192C456.905 193.893 454.239 193.893 451.5 192C453.271 191.465 453.604 190.631 452.5 189.5C450.591 190.348 448.591 190.682 446.5 190.5C446.5 189.5 446.5 188.5 446.5 187.5C441.393 188.889 436.393 190.556 431.5 192.5C433.51 194.171 435.843 194.838 438.5 194.5C438.5 193.5 438.5 192.5 438.5 191.5C441.518 191.335 444.518 191.502 447.5 192C446.833 192.333 446.167 192.667 445.5 193C446.949 194.117 448.616 194.784 450.5 195C451.727 196.587 451.394 197.921 449.5 199C450.333 199.167 451.167 199.333 452 199.5C454.38 198.799 456.547 197.633 458.5 196C462.351 195.46 466.185 195.626 470 196.5C474.331 196.078 474.498 195.245 470.5 194C472.847 193.564 475.181 193.064 477.5 192.5C483.459 193.414 489.459 193.747 495.5 193.5C495.5 194.167 495.5 194.833 495.5 195.5C466.495 197.117 438.829 203.95 412.5 216C439.831 216.5 467.165 216.667 494.5 216.5C448.998 217.831 403.332 217.831 357.5 216.5C356.441 213.382 355.108 210.382 353.5 207.5C362.81 206.502 372.143 206.168 381.5 206.5C373.657 207.167 365.657 207.833 357.5 208.5C357.358 210.694 357.691 213.027 358.5 215.5C375.837 215.667 393.17 215.5 410.5 215C412.192 213.599 412.859 211.766 412.5 209.5C414.2 209.626 415.7 210.293 417 211.5C421.562 210.535 425.562 208.535 429 205.5C429.492 204.451 429.326 203.451 428.5 202.5C429 202.167 429.5 201.833 430 201.5C434.191 204.303 438.025 203.969 441.5 200.5C438.391 200.128 435.391 200.128 432.5 200.5C431.749 199.624 431.249 198.624 431 197.5C426.543 197.968 422.376 199.301 418.5 201.5C416.653 200.814 414.986 199.814 413.5 198.5C411.238 199.467 408.905 200.134 406.5 200.5C408.703 198.9 411.036 197.567 413.5 196.5C428.384 190.428 443.717 185.761 459.5 182.5Z" fill="#246140"/>
<path fill-rule="evenodd" clip-rule="evenodd" d="M495.5 183.5C495.5 186.833 495.5 190.167 495.5 193.5C489.459 193.747 483.459 193.414 477.5 192.5C475.181 193.064 472.847 193.564 470.5 194C474.498 195.245 474.331 196.078 470 196.5C466.185 195.626 462.351 195.46 458.5 196C456.547 197.633 454.38 198.799 452 199.5C451.167 199.333 450.333 199.167 449.5 199C451.394 197.921 451.727 196.587 450.5 195C448.616 194.784 446.949 194.117 445.5 193C446.167 192.667 446.833 192.333 447.5 192C444.518 191.502 441.518 191.335 438.5 191.5C438.5 192.5 438.5 193.5 438.5 194.5C435.843 194.838 433.51 194.171 431.5 192.5C436.393 190.556 441.393 188.889 446.5 187.5C446.5 188.5 446.5 189.5 446.5 190.5C448.591 190.682 450.591 190.348 452.5 189.5C453.604 190.631 453.271 191.465 451.5 192C454.239 193.893 456.905 193.893 459.5 192C457.744 191.798 456.078 191.298 454.5 190.5C454.709 189.914 455.043 189.414 455.5 189C454.167 188.333 453.167 187.333 452.5 186C455.11 185.853 457.444 185.019 459.5 183.5C471.405 183.589 483.405 183.589 495.5 183.5Z" fill="#246140"/>
<path fill-rule="evenodd" clip-rule="evenodd" d="M495.5 195.5C494.768 202.476 494.435 209.476 494.5 216.5C467.165 216.667 439.831 216.5 412.5 216C438.829 203.95 466.495 197.117 495.5 195.5Z" fill="#030504"/>
<path fill-rule="evenodd" clip-rule="evenodd" d="M413.5 176.5C414.283 178.343 414.95 180.343 415.5 182.5C414.415 183.784 413.748 185.284 413.5 187C414.154 190.031 414.154 193.198 413.5 196.5C411.036 197.567 408.703 198.9 406.5 200.5C404.708 200.366 403.042 200.699 401.5 201.5C401.083 200.876 400.416 200.543 399.5 200.5C394.265 201.971 388.932 202.637 383.5 202.5C383.36 200.876 384.027 199.71 385.5 199C382.942 197.62 382.942 196.12 385.5 194.5C384.384 194.598 383.384 194.098 382.5 193C382.905 192.055 383.572 191.388 384.5 191C383.62 189.644 383.286 188.144 383.5 186.5C384.302 185.048 384.802 183.382 385 181.5C385.494 183.134 385.66 184.801 385.5 186.5C388.11 185.498 390.776 185.665 393.5 187C393.043 187.414 392.709 187.914 392.5 188.5C396.359 191.407 397.693 190.574 396.5 186C397.249 184.266 397.749 182.433 398 180.5C398.471 182.246 399.138 183.913 400 185.5C402.167 184 402 182.833 399.5 182C400.428 181.612 401.095 180.945 401.5 180C400.616 178.902 399.616 178.402 398.5 178.5C399.934 177.77 401.1 176.77 402 175.5C402.333 175.833 402.667 176.167 403 176.5C402.917 179.263 403.083 181.93 403.5 184.5C404.197 182.615 405.197 182.282 406.5 183.5C407.429 182.311 407.762 180.978 407.5 179.5C409.5 179.5 411.5 179.5 413.5 179.5C413.5 178.5 413.5 177.5 413.5 176.5Z" fill="white"/>
<path fill-rule="evenodd" clip-rule="evenodd" d="M370 206.5C370 206.167 381.5 205.833 381.5 205.5C388.351 205.025 395.018 203.692 401.5 201.5C402.5 201 402.5 201 406.5 199.5C410.5 198 411.238 197.467 413.5 196.5C414.986 197.814 416.653 200.814 418.5 201.5C422.376 199.301 426.543 197.968 431 197.5C431.249 198.624 431.749 199.624 432.5 200.5C435.391 200.128 438.391 200.128 441.5 200.5C438.025 203.969 434.191 204.303 430 201.5C429.5 201.833 429 202.167 428.5 202.5C429.326 203.451 429.492 204.451 429 205.5C425.562 208.535 421.562 210.535 417 211.5C415.7 210.293 414.2 209.626 412.5 209.5C412.859 211.766 412.192 213.599 410.5 215C393.17 215.5 375.837 215.667 358.5 215.5C357.691 213.027 357.358 210.694 357.5 208.5C365.657 207.833 362.157 207.167 370 206.5Z" fill="#246140"/>
<path fill-rule="evenodd" clip-rule="evenodd" d="M336.5 223.5C335.778 223.918 335.278 224.584 335 225.5C331.554 224.279 328.054 224.279 324.5 225.5C322.541 225.125 320.707 224.459 319 223.5C317.757 224.336 316.59 224.003 315.5 222.5C316.309 220.929 316.643 219.262 316.5 217.5C317.668 212.164 319.668 207.164 322.5 202.5C327.944 208.951 332.61 215.951 336.5 223.5Z" fill="white"/>
<path fill-rule="evenodd" clip-rule="evenodd" d="M64.5 185.5C62.629 185.141 61.129 184.141 60 182.5C59.6929 193.835 59.8596 205.169 60.5 216.5C114.5 216.5 168.5 216.5 222.5 216.5C220.708 217.309 218.708 217.809 216.5 218C219.014 219.252 221.68 219.752 224.5 219.5C224.281 220.675 224.614 221.675 225.5 222.5C228.842 220.66 229.176 218.494 226.5 216C227.931 215.535 229.097 214.701 230 213.5C230.667 218.833 231.333 218.833 232 213.5C232.333 214.167 232.667 214.833 233 215.5C234.218 213.981 235.718 212.814 237.5 212C236.743 210.488 235.743 209.154 234.5 208C235.428 207.612 236.095 206.945 236.5 206C235.67 204.535 235.504 203.035 236 201.5C237.908 202.079 239.575 202.079 241 201.5C240.57 203.918 240.403 206.251 240.5 208.5C241 209.5 241.5 210.5 242 211.5C242.499 207.514 242.666 203.514 242.5 199.5C243.467 206.153 244.134 212.986 244.5 220C243.37 229.539 242.037 239.039 240.5 248.5C239.448 248.649 238.448 248.483 237.5 248C238.352 240.897 239.018 233.731 239.5 226.5C240.268 227.263 240.768 228.263 241 229.5C241.808 227.421 241.641 225.421 240.5 223.5C181.145 225.159 121.812 226.159 62.5 226.5C62.1818 231.032 62.5151 235.366 63.5 239.5C63.5 241.5 63.5 243.5 63.5 245.5C63.8361 258.187 64.5028 270.854 65.5 283.5C66.5 283.5 67.5 283.5 68.5 283.5C68.465 292.422 69.7984 301.089 72.5 309.5C70.9822 312.536 71.8155 314.869 75 316.5C75.6172 321.253 76.6172 325.92 78 330.5C78.66 332.324 79.8267 333.657 81.5 334.5C85.5731 348.053 90.2397 361.386 95.5 374.5C100.127 387.084 105.794 399.084 112.5 410.5C114.043 418.73 114.543 427.063 114 435.5C112.667 433.5 111.333 431.5 110 429.5C73.6324 360.701 53.7991 287.368 50.5 209.5C51.3898 200.99 51.5565 192.324 51 183.5C51.6667 184.833 52.3333 184.833 53 183.5C53.6667 186.167 54.3333 186.167 55 183.5C55.3678 184.91 56.2011 185.91 57.5 186.5C58.4519 184.955 58.7852 183.288 58.5 181.5C59.8221 181.67 60.9887 181.337 62 180.5C63.5793 182.041 65.4127 183.208 67.5 184C66.4734 184.513 65.4734 185.013 64.5 185.5Z" fill="white"/>
<path fill-rule="evenodd" clip-rule="evenodd" d="M495.5 226.5C494.833 226.5 494.167 226.5 493.5 226.5C449.5 226.5 405.5 226.5 361.5 226.5C363.189 232.058 363.689 237.725 363 243.5C360.905 249.458 358.239 255.124 355 260.5C354.329 261.252 353.496 261.586 352.5 261.5C351.957 261.44 351.624 261.107 351.5 260.5C357.382 250.88 359.715 240.547 358.5 229.5C360.213 228.365 360.88 226.698 360.5 224.5C362.833 224.5 365.167 224.5 367.5 224.5C367.5 223.167 367.5 221.833 367.5 220.5C379.203 220.232 390.869 220.732 402.5 222C402.833 222.333 403.167 222.667 403.5 223C402.167 223.333 400.833 223.667 399.5 224C431.022 224.13 462.689 224.463 494.5 225C495.056 225.383 495.389 225.883 495.5 226.5Z" fill="white"/>
<path fill-rule="evenodd" clip-rule="evenodd" d="M239.5 226.5C180.5 226.5 121.5 226.5 62.5 226.5C121.812 226.159 181.145 225.159 240.5 223.5C241.641 225.421 241.808 227.421 241 229.5C240.768 228.263 240.268 227.263 239.5 226.5Z" fill="white"/>
<path fill-rule="evenodd" clip-rule="evenodd" d="M62.5 226.5C121.5 226.5 180.5 226.5 239.5 226.5C239.018 233.731 238.352 240.897 237.5 248C238.448 248.483 239.448 248.649 240.5 248.5C232.412 250.192 224.412 252.526 216.5 255.5C216.574 253.589 217.574 252.422 219.5 252C225.183 250.282 230.85 248.782 236.5 247.5C237.014 241.178 237.347 234.845 237.5 228.5C179.5 228.5 121.5 228.5 63.5 228.5C63.5 232.167 63.5 235.833 63.5 239.5C62.5151 235.366 62.1818 231.032 62.5 226.5Z" fill="#246140"/>
<path fill-rule="evenodd" clip-rule="evenodd" d="M216.5 255.5C207.276 258.779 198.609 263.112 190.5 268.5C147.68 264.071 105.347 256.405 63.5 245.5C63.5 243.5 63.5 241.5 63.5 239.5C63.5 235.833 63.5 232.167 63.5 228.5C121.5 228.5 179.5 228.5 237.5 228.5C237.347 234.845 237.014 241.178 236.5 247.5C230.85 248.782 225.183 250.282 219.5 252C217.574 252.422 216.574 253.589 216.5 255.5Z" fill="#246140"/>
<path fill-rule="evenodd" clip-rule="evenodd" d="M335.5 254.5C328.726 252.478 322.06 250.478 315.5 248.5C316.5 248.5 317.5 248.5 318.5 248.5C318.001 241.51 317.668 234.51 317.5 227.5C323.537 227.171 329.537 227.504 335.5 228.5C336.993 231.316 338.326 234.15 339.5 237C338.082 242.836 336.749 248.669 335.5 254.5Z" fill="#246140"/>
<path fill-rule="evenodd" clip-rule="evenodd" d="M316.5 217.5C316.643 219.262 316.309 220.929 315.5 222.5C316.59 224.003 317.757 224.336 319 223.5C320.707 224.459 322.541 225.125 324.5 225.5C328.054 224.279 331.554 224.279 335 225.5C335.278 224.584 335.778 223.918 336.5 223.5C339.26 227.596 341.593 231.929 343.5 236.5C342.295 242.987 340.629 249.32 338.5 255.5C337.209 255.737 336.209 255.404 335.5 254.5C336.749 248.669 338.082 242.836 339.5 237C338.326 234.15 336.993 231.316 335.5 228.5C329.537 227.504 323.537 227.171 317.5 227.5C317.668 234.51 318.001 241.51 318.5 248.5C317.5 248.5 316.5 248.5 315.5 248.5C314.778 248.082 314.278 247.416 314 246.5C313.333 239.167 313.333 231.833 314 224.5C314.39 221.896 315.224 219.562 316.5 217.5Z" fill="white"/>
<path fill-rule="evenodd" clip-rule="evenodd" d="M482.5 303.5C481.749 306.246 480.749 308.913 479.5 311.5C480.366 301.023 482.033 290.689 484.5 280.5C484.069 279.707 483.735 278.873 483.5 278C480.674 274.235 477.341 270.902 473.5 268C471.913 267.138 470.246 266.471 468.5 266C465.513 262.186 461.847 259.353 457.5 257.5C468.392 254.426 479.392 251.759 490.5 249.5C488.7 267.633 486.033 285.633 482.5 303.5Z" fill="#246140"/>
<path fill-rule="evenodd" clip-rule="evenodd" d="M95.5 256.5C88.2045 263.954 80.3712 270.954 72 277.5C70.6842 280.688 70.1842 284.022 70.5 287.5C67.8847 275.063 65.8847 262.396 64.5 249.5C74.7992 251.992 85.1326 254.325 95.5 256.5Z" fill="#246140"/>
<path fill-rule="evenodd" clip-rule="evenodd" d="M293.5 313.5C275.468 308.265 256.968 305.598 238 305.5C232.619 296.566 227.119 287.733 221.5 279C221.862 277.775 222.362 276.609 223 275.5C228.395 269.936 233.895 264.603 239.5 259.5C245.111 256.675 251.111 255.175 257.5 255C282.02 252.601 305.853 255.434 329 263.5C332.667 270.167 336.333 276.833 340 283.5C341.843 287.015 342.843 290.682 343 294.5C329.675 300.413 316.841 307.246 304.5 315C300.742 315.313 297.076 314.813 293.5 313.5Z" fill="white"/>
<path fill-rule="evenodd" clip-rule="evenodd" d="M63.5 245.5C105.347 256.405 147.68 264.071 190.5 268.5C189.167 269.167 187.833 269.833 186.5 270.5C165.02 268.982 143.686 266.315 122.5 262.5C113.524 260.504 104.524 258.504 95.5 256.5C85.1326 254.325 74.7992 251.992 64.5 249.5C65.8847 262.396 67.8847 275.063 70.5 287.5C72.5887 300.515 75.5887 313.182 79.5 325.5C79.7556 328.598 80.4222 331.598 81.5 334.5C79.8267 333.657 78.66 332.324 78 330.5C76.6172 325.92 75.6172 321.253 75 316.5C71.8155 314.869 70.9822 312.536 72.5 309.5C69.7984 301.089 68.465 292.422 68.5 283.5C67.5 283.5 66.5 283.5 65.5 283.5C64.5028 270.854 63.8361 258.187 63.5 245.5Z" fill="white"/>
<path fill-rule="evenodd" clip-rule="evenodd" d="M493.5 226.5C492.714 232.814 492.047 239.147 491.5 245.5C467.787 251.786 443.787 256.786 419.5 260.5C419.611 259.883 419.944 259.383 420.5 259C427.197 257.996 433.864 256.83 440.5 255.5C442.227 254.288 443.894 253.122 445.5 252C449.733 251.925 453.733 251.092 457.5 249.5C460.464 250.472 463.464 250.638 466.5 250C474.263 248.476 481.93 246.476 489.5 244C491.053 238.648 491.719 233.148 491.5 227.5C449.499 227.333 407.499 227.5 365.5 228C364.572 228.388 363.905 229.055 363.5 230C366.096 236.945 365.763 243.778 362.5 250.5C363.253 252.753 364.586 254.587 366.5 256C366.043 256.414 365.709 256.914 365.5 257.5C367.484 258.706 369.484 258.706 371.5 257.5C374.188 259.023 374.022 260.357 371 261.5C369.989 260.663 368.822 260.33 367.5 260.5C367.28 264.319 369.113 265.986 373 265.5C379.107 264.239 385.274 263.406 391.5 263C392.833 262.333 392.833 261.667 391.5 261C380.992 259.622 381.158 258.122 392 256.5C396.589 256.945 401.422 257.612 406.5 258.5C405.975 259.192 405.308 259.692 404.5 260C408.821 260.499 413.154 260.666 417.5 260.5C399.892 263.576 382.225 266.243 364.5 268.5C360.76 265.633 356.76 263.3 352.5 261.5C353.496 261.586 354.329 261.252 355 260.5C358.239 255.124 360.905 249.458 363 243.5C363.689 237.725 363.189 232.058 361.5 226.5C405.5 226.5 449.5 226.5 493.5 226.5Z" fill="#246140"/>
<path fill-rule="evenodd" clip-rule="evenodd" d="M419.5 260.5C418.833 260.5 418.167 260.5 417.5 260.5C413.154 260.666 408.821 260.499 404.5 260C405.308 259.692 405.975 259.192 406.5 258.5C401.422 257.612 396.589 256.945 392 256.5C381.158 258.122 380.992 259.622 391.5 261C392.833 261.667 392.833 262.333 391.5 263C385.274 263.406 379.107 264.239 373 265.5C369.113 265.986 367.28 264.319 367.5 260.5C368.822 260.33 369.989 260.663 371 261.5C374.022 260.357 374.188 259.023 371.5 257.5C369.484 258.706 367.484 258.706 365.5 257.5C365.709 256.914 366.043 256.414 366.5 256C364.586 254.587 363.253 252.753 362.5 250.5C365.763 243.778 366.096 236.945 363.5 230C363.905 229.055 364.572 228.388 365.5 228C407.499 227.5 449.499 227.333 491.5 227.5C491.719 233.148 491.053 238.648 489.5 244C481.93 246.476 474.263 248.476 466.5 250C463.464 250.638 460.464 250.472 457.5 249.5C453.733 251.092 449.733 251.925 445.5 252C443.894 253.122 442.227 254.288 440.5 255.5C433.864 256.83 427.197 257.996 420.5 259C419.944 259.383 419.611 259.883 419.5 260.5Z" fill="#246140"/>
<path fill-rule="evenodd" clip-rule="evenodd" d="M493.5 226.5C494.167 226.5 494.833 226.5 495.5 226.5C494.414 231.056 494.414 235.556 495.5 240C494.029 242.243 493.029 244.743 492.5 247.5C491.36 255.462 490.693 263.462 490.5 271.5C491.5 271.5 492.5 271.5 493.5 271.5C494.959 263.601 495.459 263.601 495 271.5C493.254 276.245 491.42 280.912 489.5 285.5C490.331 287.473 490.498 289.473 490 291.5C487.804 296.562 485.304 300.562 482.5 303.5C486.033 285.633 488.7 267.633 490.5 249.5C479.392 251.759 468.392 254.426 457.5 257.5C454.572 257.565 451.905 258.232 449.5 259.5C422.693 264.568 395.693 268.234 368.5 270.5C366.938 270.267 365.605 269.6 364.5 268.5C382.225 266.243 399.892 263.576 417.5 260.5C418.167 260.5 418.833 260.5 419.5 260.5C443.787 256.786 467.787 251.786 491.5 245.5C492.047 239.147 492.714 232.814 493.5 226.5Z" fill="white"/>
<path fill-rule="evenodd" clip-rule="evenodd" d="M95.5 256.5C104.524 258.504 113.524 260.504 122.5 262.5C122.611 263.117 122.944 263.617 123.5 264C126.757 265.043 130.09 265.543 133.5 265.5C125.688 274.476 117.021 282.643 107.5 290C98.3614 299.807 89.1947 309.641 80 319.5C79.5045 321.473 79.3379 323.473 79.5 325.5C75.5887 313.182 72.5887 300.515 70.5 287.5C70.1842 284.022 70.6842 280.688 72 277.5C80.3712 270.954 88.2045 263.954 95.5 256.5Z" fill="#33774C"/>
<path fill-rule="evenodd" clip-rule="evenodd" d="M457.5 257.5C461.847 259.353 465.513 262.186 468.5 266C470.246 266.471 471.913 267.138 473.5 268C477.341 270.902 480.674 274.235 483.5 278C483.735 278.873 484.069 279.707 484.5 280.5C482.033 290.689 480.366 301.023 479.5 311.5C479.435 314.428 478.768 317.095 477.5 319.5C475.284 318.797 473.451 317.464 472 315.5C470.935 311.601 468.435 309.268 464.5 308.5C463.139 306.972 461.972 305.305 461 303.5C457.145 299.646 452.978 296.146 448.5 293C447.929 291.795 447.262 290.628 446.5 289.5C438.12 281.451 429.786 273.451 421.5 265.5C429.144 264.337 436.811 263.171 444.5 262C446.491 261.626 448.158 260.793 449.5 259.5C451.905 258.232 454.572 257.565 457.5 257.5Z" fill="#33774C"/>
<path fill-rule="evenodd" clip-rule="evenodd" d="M449.5 259.5C448.158 260.793 446.491 261.626 444.5 262C436.811 263.171 429.144 264.337 421.5 265.5C405.873 268.03 390.207 270.363 374.5 272.5C378.237 274.903 381.237 277.903 383.5 281.5C378.196 278.188 373.196 274.521 368.5 270.5C395.693 268.234 422.693 264.568 449.5 259.5Z" fill="#33774C"/>
<path fill-rule="evenodd" clip-rule="evenodd" d="M122.5 262.5C143.686 266.315 165.02 268.982 186.5 270.5C184.537 271.82 182.537 273.154 180.5 274.5C180.5 273.5 180.5 272.5 180.5 271.5C173.977 270.496 167.477 270.496 161 271.5C151.705 269.651 142.538 267.651 133.5 265.5C130.09 265.543 126.757 265.043 123.5 264C122.944 263.617 122.611 263.117 122.5 262.5Z" fill="#246140"/>
<path fill-rule="evenodd" clip-rule="evenodd" d="M133.5 265.5C142.538 267.651 151.705 269.651 161 271.5C167.477 270.496 173.977 270.496 180.5 271.5C180.5 272.5 180.5 273.5 180.5 274.5C173.201 280.464 166.201 286.797 159.5 293.5C158.167 294.5 156.833 295.5 155.5 296.5C153.856 296.286 152.356 296.62 151 297.5C146.495 303.923 141.828 310.256 137 316.5C136.517 317.448 136.351 318.448 136.5 319.5C134.396 319.799 132.396 319.466 130.5 318.5C130.709 317.914 131.043 317.414 131.5 317C130.333 316.5 129.5 315.667 129 314.5C128.13 315.108 127.63 315.941 127.5 317C128.735 319.9 130.402 322.4 132.5 324.5C130.572 328.851 128.239 333.018 125.5 337C120.48 348.578 116.147 360.412 112.5 372.5C111.833 382.833 111.167 393.167 110.5 403.5C106.816 397.465 103.649 391.132 101 384.5C100.273 381.136 99.4396 377.803 98.5 374.5C97.4728 373.209 96.4728 373.209 95.5 374.5C90.2397 361.386 85.5731 348.053 81.5 334.5C80.4222 331.598 79.7556 328.598 79.5 325.5C79.3379 323.473 79.5045 321.473 80 319.5C89.1947 309.641 98.3614 299.807 107.5 290C117.021 282.643 125.688 274.476 133.5 265.5Z" fill="#246140"/>
<path fill-rule="evenodd" clip-rule="evenodd" d="M421.5 265.5C429.786 273.451 438.12 281.451 446.5 289.5C447.262 290.628 447.929 291.795 448.5 293C452.978 296.146 457.145 299.646 461 303.5C461.972 305.305 463.139 306.972 464.5 308.5C468.435 309.268 470.935 311.601 472 315.5C473.451 317.464 475.284 318.797 477.5 319.5C470.68 345.962 461.68 371.629 450.5 396.5C449.5 396.5 448.5 396.5 447.5 396.5C447.405 399.358 446.238 401.691 444 403.5C442.991 392.731 443.491 382.065 445.5 371.5C445.064 368.821 444.564 366.155 444 363.5C443.667 364.833 443.333 366.167 443 367.5C442.833 366.667 442.667 365.833 442.5 365C444.639 358.214 447.639 351.88 451.5 346C450.576 344.85 450.576 343.85 451.5 343C450.132 341.66 448.799 340.326 447.5 339C447.759 337.739 448.426 336.739 449.5 336C447.267 333.263 444.6 331.097 441.5 329.5C440.051 331.249 438.718 331.416 437.5 330C437.957 329.586 438.291 329.086 438.5 328.5C435.23 326.733 432.397 324.4 430 321.5C428.878 324.076 427.878 326.743 427 329.5C424.398 325.696 423.064 321.696 423 317.5C419.694 314.081 417.194 310.915 415.5 308C415.889 305.584 416.555 303.251 417.5 301C417.375 299.373 416.875 297.873 416 296.5C412.8 301.21 409.3 301.544 405.5 297.5C403.604 296.534 401.604 296.201 399.5 296.5C394.14 291.472 388.807 286.472 383.5 281.5C381.237 277.903 378.237 274.903 374.5 272.5C390.207 270.363 405.873 268.03 421.5 265.5Z" fill="#246140"/>
<path fill-rule="evenodd" clip-rule="evenodd" d="M234.5 259.5C229.068 265.443 223.068 271.609 216.5 278C213.086 278.297 209.753 278.964 206.5 280C193.507 285.493 181.841 292.993 171.5 302.5C169.244 301.579 168.244 299.912 168.5 297.5C187.238 279.486 209.238 266.819 234.5 259.5Z" fill="white"/>
<path fill-rule="evenodd" clip-rule="evenodd" d="M460.5 180.5C470.084 181.473 479.75 181.806 489.5 181.5C489.5 181.833 489.5 182.167 489.5 182.5C479.5 182.5 469.5 182.5 459.5 182.5C459.5 182.167 459.5 181.833 459.5 181.5C460.167 181.5 460.5 181.167 460.5 180.5Z" fill="white"/>
<path fill-rule="evenodd" clip-rule="evenodd" d="M461.5 165.5C462.263 166.268 463.263 166.768 464.5 167C460.384 167.325 456.384 168.159 452.5 169.5C452.709 170.086 453.043 170.586 453.5 171C455.473 171.495 457.473 171.662 459.5 171.5C460.492 171.672 461.158 171.338 461.5 170.5C462.222 170.082 462.722 169.416 463 168.5C464.085 172.269 466.585 173.936 470.5 173.5C471.376 173.369 472.043 173.702 472.5 174.5C468.195 175.758 464.195 175.091 460.5 172.5C460.167 172.833 459.833 173.167 459.5 173.5C461.924 174.985 464.257 176.651 466.5 178.5C467.773 179.077 467.773 179.743 466.5 180.5C464.668 179.752 463.001 178.752 461.5 177.5C460.614 178.325 460.281 179.325 460.5 180.5C460.5 181.167 460.167 181.5 459.5 181.5C458.347 180.687 458.347 179.687 459.5 178.5C459 178.167 458.5 177.833 458 177.5C456.674 178.799 455.34 180.132 454 181.5C453.542 178.415 454.709 176.082 457.5 174.5C457.167 174.167 456.833 173.833 456.5 173.5C453.656 175.103 450.656 175.603 447.5 175C449.063 174.241 450.063 173.074 450.5 171.5C450.5 170.833 450.5 170.167 450.5 169.5C450.5 169.167 450.5 168.833 450.5 168.5C452.374 167.163 454.374 165.829 456.5 164.5C458.071 165.309 459.738 165.643 461.5 165.5Z" fill="white"/>
<path fill-rule="evenodd" clip-rule="evenodd" d="M473.5 159.5C474.716 161.847 474.716 164.347 473.5 167C473.833 167.5 474.167 168 474.5 168.5C475.176 167.398 475.842 166.398 476.5 165.5C476.773 167.451 476.107 168.951 474.5 170C474.784 171.956 474.784 174.123 474.5 176.5C471.302 175.964 468.635 176.631 466.5 178.5C464.257 176.651 461.924 174.985 459.5 173.5C459.833 173.167 460.167 172.833 460.5 172.5C464.195 175.091 468.195 175.758 472.5 174.5C472.043 173.702 471.376 173.369 470.5 173.5C469.282 172.839 467.949 172.172 466.5 171.5C468.401 170.769 470.401 170.769 472.5 171.5C472.5 170.5 472.5 169.5 472.5 168.5C472.963 165.518 473.296 162.518 473.5 159.5Z" fill="white"/>
<path fill-rule="evenodd" clip-rule="evenodd" d="M461.5 165.5C462.833 165.5 464.167 165.5 465.5 165.5C465.5 166.5 465.5 167.5 465.5 168.5C467.833 168.5 470.167 168.5 472.5 168.5C472.5 169.5 472.5 170.5 472.5 171.5C470.401 170.769 468.401 170.769 466.5 171.5C467.949 172.172 469.282 172.839 470.5 173.5C466.585 173.936 464.085 172.269 463 168.5C462.722 169.416 462.222 170.082 461.5 170.5C461.052 168.535 460.052 168.202 458.5 169.5C458.863 170.183 459.196 170.85 459.5 171.5C457.473 171.662 455.473 171.495 453.5 171C453.043 170.586 452.709 170.086 452.5 169.5C456.384 168.159 460.384 167.325 464.5 167C463.263 166.768 462.263 166.268 461.5 165.5Z" fill="white"/>
<path fill-rule="evenodd" clip-rule="evenodd" d="M461.5 170.5C461.158 171.338 460.492 171.672 459.5 171.5C459.196 170.85 458.863 170.183 458.5 169.5C460.052 168.202 461.052 168.535 461.5 170.5Z" fill="white"/>
<path fill-rule="evenodd" clip-rule="evenodd" d="M415.5 156.5C416.476 164.261 413.143 167.928 405.5 167.5C405.737 166.209 405.404 165.209 404.5 164.5C407.627 161.102 411.293 158.435 415.5 156.5Z" fill="white"/>
<path fill-rule="evenodd" clip-rule="evenodd" d="M469.5 154.5C468.508 154.328 467.842 154.662 467.5 155.5C465.901 155.232 464.568 155.566 463.5 156.5C462.347 155.687 462.347 154.687 463.5 153.5C459.865 151.443 456.198 151.609 452.5 154C453.416 154.278 454.082 154.778 454.5 155.5C452.335 155.116 450.668 155.783 449.5 157.5C450.689 158.429 452.022 158.762 453.5 158.5C452.059 161.382 450.392 161.715 448.5 159.5C448.167 159.833 447.833 160.167 447.5 160.5C447.745 162.745 447.745 165.078 447.5 167.5C448.325 168.386 449.325 168.719 450.5 168.5C450.5 168.833 450.5 169.167 450.5 169.5C448.533 169.739 446.699 169.406 445 168.5C441.843 157.301 446.177 151.301 458 150.5C462.473 150.398 466.306 151.731 469.5 154.5Z" fill="white"/>
<path fill-rule="evenodd" clip-rule="evenodd" d="M476.5 165.5C475.842 166.398 475.176 167.398 474.5 168.5C474.167 168 473.833 167.5 473.5 167C474.716 164.347 474.716 161.847 473.5 159.5C472.92 157.251 471.587 155.585 469.5 154.5C466.306 151.731 462.473 150.398 458 150.5C446.177 151.301 441.843 157.301 445 168.5C446.699 169.406 448.533 169.739 450.5 169.5C450.5 170.167 450.5 170.833 450.5 171.5C447.348 172.041 444.848 171.041 443 168.5C439.366 157.252 443.533 150.585 455.5 148.5C456.452 146.955 456.785 145.288 456.5 143.5C460.161 143.35 461.161 144.85 459.5 148C466.281 148.973 471.781 152.14 476 157.5C476.497 160.146 476.664 162.813 476.5 165.5Z" fill="white"/>
<path fill-rule="evenodd" clip-rule="evenodd" d="M463.5 156.5C464.552 158.256 466.219 158.923 468.5 158.5C468.737 157.209 468.404 156.209 467.5 155.5C467.842 154.662 468.508 154.328 469.5 154.5C471.587 155.585 472.92 157.251 473.5 159.5C473.296 162.518 472.963 165.518 472.5 168.5C470.167 168.5 467.833 168.5 465.5 168.5C465.5 167.5 465.5 166.5 465.5 165.5C464.167 165.5 462.833 165.5 461.5 165.5C459.738 165.643 458.071 165.309 456.5 164.5C454.374 165.829 452.374 167.163 450.5 168.5C449.325 168.719 448.325 168.386 447.5 167.5C447.745 165.078 447.745 162.745 447.5 160.5C447.833 160.167 448.167 159.833 448.5 159.5C450.392 161.715 452.059 161.382 453.5 158.5C454.11 157.609 454.443 156.609 454.5 155.5C454.082 154.778 453.416 154.278 452.5 154C456.198 151.609 459.865 151.443 463.5 153.5C462.347 154.687 462.347 155.687 463.5 156.5Z" fill="white"/>
<path fill-rule="evenodd" clip-rule="evenodd" d="M467.5 155.5C468.404 156.209 468.737 157.209 468.5 158.5C466.219 158.923 464.552 158.256 463.5 156.5C464.568 155.566 465.901 155.232 467.5 155.5Z" fill="white"/>
<path fill-rule="evenodd" clip-rule="evenodd" d="M454.5 155.5C454.443 156.609 454.11 157.609 453.5 158.5C452.022 158.762 450.689 158.429 449.5 157.5C450.668 155.783 452.335 155.116 454.5 155.5Z" fill="white"/>
<path fill-rule="evenodd" clip-rule="evenodd" d="M421.5 104.5C432.048 106.424 442.715 107.758 453.5 108.5C453.977 109.478 454.643 110.311 455.5 111C459.163 111.572 462.497 112.738 465.5 114.5C452.334 112.6 439.334 109.934 426.5 106.5C425.833 106.5 425.167 106.5 424.5 106.5C423.5 105.833 422.5 105.167 421.5 104.5Z" fill="white"/>
<path fill-rule="evenodd" clip-rule="evenodd" d="M375.5 289.5C387.232 298.898 397.566 309.564 406.5 321.5C406.703 323.044 407.37 324.378 408.5 325.5C408.291 326.086 407.957 326.586 407.5 327C403.855 327.719 400.188 328.219 396.5 328.5C393.896 321.289 390.729 314.289 387 307.5C382.896 301.613 379.062 295.613 375.5 289.5Z" fill="white"/>
<path fill-rule="evenodd" clip-rule="evenodd" d="M375.5 289.5C379.062 295.613 382.896 301.613 387 307.5C390.729 314.289 393.896 321.289 396.5 328.5C394.485 329.924 392.152 330.59 389.5 330.5C377.539 316.604 363.706 304.938 348 295.5C344.014 284.694 338.847 274.527 332.5 265C348.859 269.516 363.192 277.682 375.5 289.5Z" fill="white"/>
<path fill-rule="evenodd" clip-rule="evenodd" d="M293.5 316.5C296.179 317.226 298.846 318.059 301.5 319C308.584 334.357 314.75 350.19 320 366.5C320.706 368.971 320.373 371.305 319 373.5C306.751 388.139 293.918 402.306 280.5 416C260.972 412.941 241.306 410.608 221.5 409C220.695 407.887 220.028 406.721 219.5 405.5C210.652 387.489 203.818 368.822 199 349.5C210.769 335.728 223.269 322.562 236.5 310C255.944 308.549 274.944 310.716 293.5 316.5Z" fill="white"/>
<path fill-rule="evenodd" clip-rule="evenodd" d="M399.5 296.5C401.604 296.201 403.604 296.534 405.5 297.5C409.3 301.544 412.8 301.21 416 296.5C416.875 297.873 417.375 299.373 417.5 301C416.555 303.251 415.889 305.584 415.5 308C417.194 310.915 419.694 314.081 423 317.5C423.064 321.696 424.398 325.696 427 329.5C427.878 326.743 428.878 324.076 430 321.5C432.397 324.4 435.23 326.733 438.5 328.5C438.291 329.086 437.957 329.586 437.5 330C438.718 331.416 440.051 331.249 441.5 329.5C444.6 331.097 447.267 333.263 449.5 336C448.426 336.739 447.759 337.739 447.5 339C448.799 340.326 450.132 341.66 451.5 343C450.576 343.85 450.576 344.85 451.5 346C447.639 351.88 444.639 358.214 442.5 365C442.667 365.833 442.833 366.667 443 367.5C443.333 366.167 443.667 364.833 444 363.5C444.564 366.155 445.064 368.821 445.5 371.5C443.491 382.065 442.991 392.731 444 403.5C446.238 401.691 447.405 399.358 447.5 396.5C448.5 396.5 449.5 396.5 450.5 396.5C447.738 402.36 444.738 408.026 441.5 413.5C444.34 378.178 435.673 346.178 415.5 317.5C410.934 309.931 405.601 302.931 399.5 296.5Z" fill="#246140"/>
<path fill-rule="evenodd" clip-rule="evenodd" d="M166.5 301.5C167.355 302.531 168.022 303.697 168.5 305C160.261 318.718 155.427 333.552 154 349.5C141.977 364.549 133.977 381.549 130 400.5C127.902 402.636 125.568 402.636 123 400.5C124.97 364.078 137.804 332.078 161.5 304.5C162.922 303.075 164.589 302.075 166.5 301.5Z" fill="white"/>
<path fill-rule="evenodd" clip-rule="evenodd" d="M155.5 296.5C126.649 328.894 112.316 366.894 112.5 410.5C105.794 399.084 100.127 387.084 95.5 374.5C96.4728 373.209 97.4728 373.209 98.5 374.5C99.4396 377.803 100.273 381.136 101 384.5C103.649 391.132 106.816 397.465 110.5 403.5C111.167 393.167 111.833 382.833 112.5 372.5C116.147 360.412 120.48 348.578 125.5 337C128.239 333.018 130.572 328.851 132.5 324.5C130.402 322.4 128.735 319.9 127.5 317C127.63 315.941 128.13 315.108 129 314.5C129.5 315.667 130.333 316.5 131.5 317C131.043 317.414 130.709 317.914 130.5 318.5C132.396 319.466 134.396 319.799 136.5 319.5C136.351 318.448 136.517 317.448 137 316.5C141.828 310.256 146.495 303.923 151 297.5C152.356 296.62 153.856 296.286 155.5 296.5Z" fill="#246140"/>
<path fill-rule="evenodd" clip-rule="evenodd" d="M217.5 407.5C218.412 408.738 218.579 410.072 218 411.5C208.08 427.339 200.914 444.339 196.5 462.5C184.188 463.528 171.854 464.195 159.5 464.5C157.444 463.784 155.277 463.117 153 462.5C142.987 446.133 136.321 428.466 133 409.5C134.536 388.733 141.703 370.066 154.5 353.5C168.484 352.501 182.484 352.167 196.5 352.5C201.354 371.739 208.354 390.072 217.5 407.5Z" fill="white"/>
<path fill-rule="evenodd" clip-rule="evenodd" d="M395.5 332.5C396.496 332.414 397.329 332.748 398 333.5C403.846 346.883 407.179 360.883 408 375.5C408.667 383.5 408.667 391.5 408 399.5C406.586 413.4 404.086 427.066 400.5 440.5C398.139 440.326 395.806 439.993 393.5 439.5C393.632 436.43 393.299 433.43 392.5 430.5C390.319 415.09 385.985 400.423 379.5 386.5C379.322 385.305 378.989 384.138 378.5 383C384.811 366.912 389.144 350.412 391.5 333.5C392.833 333.167 394.167 332.833 395.5 332.5Z" fill="white"/>
<path fill-rule="evenodd" clip-rule="evenodd" d="M377.5 386.5C382.27 400.077 386.27 413.743 389.5 427.5C390.295 432.149 390.461 436.816 390 441.5C380.514 459.328 368.348 475.162 353.5 489C334.326 486.707 315.659 482.207 297.5 475.5C293.338 456.899 288.338 438.399 282.5 420C283.317 418.51 284.15 417.01 285 415.5C296.742 403.762 307.742 391.429 318 378.5C320.016 376.316 322.183 374.316 324.5 372.5C340.705 376.801 357.038 380.634 373.5 384C375.133 384.48 376.466 385.313 377.5 386.5Z" fill="white"/>
<path fill-rule="evenodd" clip-rule="evenodd" d="M400.5 440.5C404.086 427.066 406.586 413.4 408 399.5C408.667 391.5 408.667 383.5 408 375.5C407.179 360.883 403.846 346.883 398 333.5C397.329 332.748 396.496 332.414 395.5 332.5C400.389 331.588 405.389 330.588 410.5 329.5C411.086 329.709 411.586 330.043 412 330.5C432.958 367.458 437.458 406.458 425.5 447.5C417.007 445.628 408.673 443.294 400.5 440.5Z" fill="white"/>
<path fill-rule="evenodd" clip-rule="evenodd" d="M377.5 386.5C378.167 386.5 378.833 386.5 379.5 386.5C385.985 400.423 390.319 415.09 392.5 430.5C391.9 429.1 390.9 428.1 389.5 427.5C386.27 413.743 382.27 400.077 377.5 386.5Z" fill="#030504"/>
<path fill-rule="evenodd" clip-rule="evenodd" d="M297.5 478.5C315.026 484.715 333.026 489.382 351.5 492.5C331.501 510.669 308.168 522.836 281.5 529C271.57 530.825 261.57 531.991 251.5 532.5C248.877 524.382 247.543 516.048 247.5 507.5C262.643 499.095 277.31 489.928 291.5 480C293.345 478.872 295.345 478.372 297.5 478.5Z" fill="white"/>
<path fill-rule="evenodd" clip-rule="evenodd" d="M179.5 466.5C185.509 466.334 191.509 466.501 197.5 467C210.298 481.468 224.631 494.135 240.5 505C243.397 506.715 244.731 509.215 244.5 512.5C245.628 518.141 246.628 523.808 247.5 529.5C247.719 530.675 247.386 531.675 246.5 532.5C209.567 527.703 178.9 511.37 154.5 483.5C153.548 477.925 153.214 472.259 153.5 466.5C162.308 467.759 170.975 467.759 179.5 466.5Z" fill="white"/>
<path fill-rule="evenodd" clip-rule="evenodd" d="M351.5 492.5C354.941 502.58 357.941 512.913 360.5 523.5C357.779 528.397 354.445 532.897 350.5 537C323.879 549.542 295.879 555.208 266.5 554C263 551.167 259.5 548.333 256 545.5C254.041 541.336 252.541 537.003 251.5 532.5C261.57 531.991 271.57 530.825 281.5 529C308.168 522.836 331.501 510.669 351.5 492.5Z" fill="white"/>
<path fill-rule="evenodd" clip-rule="evenodd" d="M154.5 483.5C178.9 511.37 209.567 527.703 246.5 532.5C247.386 531.675 247.719 530.675 247.5 529.5C249.987 534.481 251.154 539.815 251 545.5C246.953 550.004 242.12 550.837 236.5 548C205.392 539.952 178.725 524.452 156.5 501.5C155.042 495.59 154.376 489.59 154.5 483.5Z" fill="white"/>
<path fill-rule="evenodd" clip-rule="evenodd" d="M243.5 560.5C254.347 566.983 265.681 572.65 277.5 577.5C288.78 573.193 299.447 567.86 309.5 561.5C318.803 558.675 328.136 556.175 337.5 554C318.947 568.117 298.947 579.95 277.5 589.5C256.053 579.95 236.053 568.117 217.5 554C216.304 553.346 216.304 552.846 217.5 552.5C226.087 555.479 234.754 558.146 243.5 560.5Z" fill="white"/>
<path fill-rule="evenodd" clip-rule="evenodd" d="M243.5 560.5C265.396 565.403 287.396 565.737 309.5 561.5C299.447 567.86 288.78 573.193 277.5 577.5C265.681 572.65 254.347 566.983 243.5 560.5Z" fill="#246140"/>
<path fill-rule="evenodd" clip-rule="evenodd" d="M259.5 565.5C272.164 566.571 284.831 566.738 297.5 566C293.392 569.635 288.559 571.801 283 572.5C282.517 571.552 282.351 570.552 282.5 569.5C278.029 569.672 277.696 570.506 281.5 572C279.99 572.85 278.49 573.683 277 574.5C269.824 573.761 263.991 570.761 259.5 565.5Z" fill="#246140"/>
<path d="M238 163.5C227 140.5 219 125.5 201 75.5C175.5 98.5 209 185.5 239.5 182.5C240.073 182.444 240.5 172.5 238 163.5Z" fill="#FF9D00"/>
<path d="M60 161.5C60 161.5 59.9999 136 60 118.5C124 110.5 182 91 182 91C182 91 177.5 132 205 169C201.041 172.775 193.5 177 193.5 177L173 157L160.5 166.5L135 142L114.5 159L88.5 136L60 161.5Z" fill="#E72A54"/>
<path d="M353 166.5C377 128 372.5 91 372.5 91C372.5 91 431 109.5 495.5 120C495.741 123.506 495.777 125.496 495.5 129C451 133.5 401 167.5 401 167.5C401 167.5 377.5 175 353 166.5Z" fill="#E72A54" stroke="#E72A54"/>
</svg>
